<svg xmlns="http://www.w3.org/2000/svg" width="538" height="537" viewBox="0 0 538 537" version="1.1"><path d="M 233.085 2.036 C -14.768 35.915, -85.223 363.031, 126.652 496.197 C 295.933 602.593, 525.799 486.284, 536.708 288.715 C 537.035 282.784, 537.685 277.695, 538.152 277.406 C 539.372 276.652, 539.226 258, 538 258 C 537.434 258, 536.992 255.071, 536.982 251.250 C 536.945 237.633, 532.042 209.988, 526.311 191.084 C 488.066 64.926, 362.980 -15.719, 233.085 2.036 M 252 53.661 C 70.486 71.365, -11.158 285.417, 113.467 416.864 C 238.518 548.760, 462.949 472.177, 482.930 290.789 C 497.452 158.962, 382.507 40.933, 252 53.661 M 300.500 230.599 C 261.450 269.850, 229.053 301.972, 228.506 301.982 C 227.959 301.992, 213.446 287.940, 196.255 270.755 L 164.997 239.509 146.251 258.256 L 127.505 277.002 178.004 327.501 L 228.503 378.001 319.496 287.004 L 410.488 196.008 392.004 177.504 C 381.838 167.327, 373.066 159.053, 372.510 159.118 C 371.955 159.182, 339.550 191.349, 300.500 230.599 M 0.365 268.500 C 0.368 274, 0.536 276.122, 0.738 273.216 C 0.941 270.311, 0.939 265.811, 0.734 263.216 C 0.528 260.622, 0.363 263, 0.365 268.500" stroke="none" fill="#fffcfc" fill-rule="evenodd"/></svg>