<svg xmlns="http://www.w3.org/2000/svg" width="512" height="512" xmlns:v="https://vecta.io/nano"><path d="M0 0h512v512H0V0z" fill="#454545"/><path d="M155.358 89.853l3.371-.022 3.702-.008 3.899-.02 12.826-.041 4.433-.012 20.87-.042 23.966-.077 18.589-.048 11.066-.036C292.726 89.32 320.276 95.427 346 120c11.511 11.857 19.348 26.184 24 42l.965 3.105c5.562 21.043 2.684 44.2-5.965 63.895l-1.305 3.02C353.52 253.952 333.683 272.57 311 281c-18.677 6.795-36.629 7.29-56.312 7.195l-6.927-.009-18.07-.049-18.503-.04L175 288l.008 1.852.147 44.672.071 21.603.056 18.836.035 9.967.023 11.146.033 3.313c-.029 7.064-.542 13.21-5.24 18.853-5.864 4.769-10.089 7.293-17.797 7.063-6.109-.797-10.049-3.552-13.773-8.367-3.032-4.304-3.689-7.59-3.71-12.825l-.022-3.726-.008-4.095-.02-4.307-.041-14.153-.012-4.876-.042-22.912-.077-26.427-.048-20.439-.036-12.201-.017-11.487-.02-4.204c-.077-8.341-.097-15.383 5.902-21.797 4.622-4.136 8.932-5.74 15.055-5.742l3.291-.016 3.581.012 3.796-.011 8.165-.008 12.956-.029 36.842-.077 20.356-.055 10.746-.017c23.798.055 43.383-.912 61.55-18.176 10.626-11.198 16.528-25.929 16.207-41.452-.849-16.206-6.779-30.028-17.957-41.919-13.741-11.13-27.272-15.31-44.812-15.271l-3.802-.016-8.137-.018-12.889-.041-32.003-.101-24.901-.083-12.79-.028-9.852-.042-3.543.014c-7.426-.066-14.612-.496-20.61-5.282-4.68-5.881-7.194-10.13-6.965-17.797.797-6.109 3.552-10.049 8.367-13.773 4.115-2.899 7.286-3.688 12.296-3.71z" fill="#2cb3a6"/></svg>