<svg xmlns="http://www.w3.org/2000/svg" fill="#000" class="icon glyph" viewBox="0 0 2400 2400"><path d="M2089 978h-65a116 116 0 01-100-74V900a113 113 0 01 22-126l46-46a113 113 0 00 0-158L1830 414a113 113 0 00-160 0l-45 46a113 113 0 01-125 22 116 116 0 01-74-100V310A111 111 0 00 1311 200h-222a111 111 0 00-111 110v65a116 116 0 01-74 100H900a113 113 0 01-125-16l-46-46a113 113 0 00-158 0L414 571a113 113 0 00 0 158l46 46A113 113 0 01 482 900a116 116 0 01-100 74h-70a111 111 0 00-110 115v222a111 111 0 00 110 111h64a116 116 0 01 100 74 113 113 0 01-22 126l-46 46a113 113 0 00 0 158l157 157a113 113 0 00 158 0l46-46a113 113 0 01 130-20 116 116 0 01 75 100v66A111 111 0 00 1089 2200h222a111 111 0 00 111-111v-65a116 116 0 01 74-100 113 113 0 01 126 22l46 46a113 113 0 00 158 0l157-157a113 113 0 00 0-158l-46-46a113 113 0 01-20-130 116 116 0 01 100-72h66A111 111 0 00 2200 1311v-222a111 111 0 00-110-111ZM1200 1600a400 400 0 11 400-400 400 400 0 01-400 400Z"/></svg>
