<svg xmlns="http://www.w3.org/2000/svg" xml:space="preserve" fill="#000" version="1.1" viewBox="0 0 9420 9420"><path d="M5791 8940a480 480 0 00 960 0v-775h-959V8940h-1zm0-8460v775H6750V480a480 480 0 00-959 0zM4230 480v775h960V480a480 480 0 00-960 0zm0 8460a480 480 0 00 960 0v-775h-960V8940zM2670 480v775h959V480a480 480 0 00-959 0zm0 8460a480 480 0 00 960 0v-775h-960V8940zM0 6270a480 480 0 00 480 480h775v-959H480A480 480 0 00 0 6270zm8940-479h-775V6750H8940a480 480 0 00 0-959zM0 4710a480 480 0 00 480 480h775v-960H480a480 480 0 00-480 480zm8940-480h-775v960H8940a480 480 0 00 0-960zM0 3150a480 480 0 00 480 480h775v-960H480a480 480 0 00-480 480zm8940-480h-775v959H8940a480 480 0 00 0-959zM1716 7204a500 500 0 00 500 500h4988a500 500 0 00 500-500V2216a500 500 0 00-500-500H2216a500 500 0 00-500 500v4988"/></svg>
