<svg xmlns="http://www.w3.org/2000/svg" width="538" height="537" viewBox="0 0 538 537" version="1.1"><path d="M 245 0.663 C 19.260 22.766, -80.448 293.706, 77.480 455.869 C 234.007 616.593, 513.757 521.166, 535.888 299.500 C 536.437 294, 537.413 284.240, 538.056 277.811 C 538.920 269.171, 538.940 263.955, 538.130 257.811 C 537.528 253.240, 536.535 244.325, 535.924 238 C 522.229 96.258, 387.900 -13.329, 245 0.663 M 249.457 53.984 C 79.723 71.944, -4.448 265.960, 99.342 400 C 216.194 550.907, 457.573 484.562, 482.454 294.699 C 500.044 160.463, 383.273 39.824, 249.457 53.984 M 177.662 176.838 L 158.839 195.680 195.170 231.830 L 231.500 267.980 195.202 304.293 L 158.904 340.606 175.323 357.053 C 184.354 366.099, 192.942 374.606, 194.407 375.958 L 197.073 378.417 233 342.500 L 268.927 306.583 271.563 309.042 C 273.012 310.394, 289.273 326.462, 307.697 344.750 C 326.122 363.038, 341.494 378, 341.858 378 C 342.222 378, 350.837 369.674, 361.002 359.497 L 379.485 340.995 343.244 304.744 L 307.003 268.493 343.246 232.251 L 379.488 196.008 360.502 177.002 L 341.515 157.995 305.257 194.242 L 269 230.490 232.743 194.242 L 196.485 157.995 177.662 176.838 M 0.320 268 C 0.320 271.575, 0.502 273.038, 0.723 271.250 C 0.945 269.462, 0.945 266.538, 0.723 264.750 C 0.502 262.962, 0.320 264.425, 0.320 268" stroke="none" fill="#fffcfc" fill-rule="evenodd"/></svg>